<?xml version="1.0" standalone="no"?>
<!DOCTYPE svg PUBLIC "-//W3C//DTD SVG 20010904//EN"
 "http://www.w3.org/TR/2001/REC-SVG-20010904/DTD/svg10.dtd">
<svg version="1.0" xmlns="http://www.w3.org/2000/svg"
 width="700.000000pt" height="700.000000pt" viewBox="0 0 700.000000 700.000000"
 preserveAspectRatio="xMidYMid meet">
<metadata>
Created by potrace 1.11, written by Peter Selinger 2001-2013
</metadata>
<g transform="translate(0.000000,700.000000) scale(0.100000,-0.100000)"
fill="#000000" stroke="none">
<path d="M4613 6534 c-29 -7 -70 -24 -90 -37 -21 -14 -662 -649 -1425 -1412
-1134 -1133 -1392 -1396 -1412 -1438 -48 -97 -44 -220 9 -312 21 -36 2772
-2796 2821 -2829 46 -32 139 -55 203 -51 114 7 152 33 368 248 234 231 258
270 258 402 -1 147 8 135 -513 657 -251 252 -743 747 -1093 1099 l-636 640
424 427 c233 235 725 729 1093 1098 727 728 712 712 726 836 8 70 -16 165 -55
221 -16 23 -112 123 -213 223 -203 201 -247 231 -353 238 -33 2 -84 -2 -112
-10z"/>
</g>
</svg>
