<?xml version="1.0" encoding="UTF-8" standalone="no"?>
<svg
   xmlns:dc="http://purl.org/dc/elements/1.1/"
   xmlns:cc="http://creativecommons.org/ns#"
   xmlns:rdf="http://www.w3.org/1999/02/22-rdf-syntax-ns#"
   xmlns:svg="http://www.w3.org/2000/svg"
   xmlns="http://www.w3.org/2000/svg"
   xmlns:sodipodi="http://sodipodi.sourceforge.net/DTD/sodipodi-0.dtd"
   xmlns:inkscape="http://www.inkscape.org/namespaces/inkscape"
   inkscape:version="1.0 (6e3e5246a0, 2020-05-07)"
   sodipodi:docname="logo.svg"
   viewBox="0 0 163.02345 61.027066"
   height="61.027065"
   width="163.02345"
   xml:space="preserve"
   id="svg5276"
   version="1.1"><metadata
     id="metadata5282"><rdf:RDF><cc:Work
         rdf:about=""><dc:format>image/svg+xml</dc:format><dc:type
           rdf:resource="http://purl.org/dc/dcmitype/StillImage" /><dc:title></dc:title></cc:Work></rdf:RDF></metadata><defs
     id="defs5280"><clipPath
       id="clipPath5292"
       clipPathUnits="userSpaceOnUse"><path
         inkscape:connector-curvature="0"
         id="path5290"
         d="M 0,152.421 H 422.076 V 0 H 0 Z" /></clipPath></defs><sodipodi:namedview
     inkscape:snap-smooth-nodes="true"
     inkscape:snap-intersection-paths="true"
     inkscape:document-rotation="0"
     inkscape:bbox-nodes="true"
     inkscape:snap-others="false"
     inkscape:snap-nodes="true"
     inkscape:snap-bbox="true"
     inkscape:snap-page="true"
     fit-margin-bottom="0"
     fit-margin-right="0"
     fit-margin-left="0"
     fit-margin-top="0"
     inkscape:current-layer="g2315"
     inkscape:window-maximized="1"
     inkscape:window-y="27"
     inkscape:window-x="0"
     inkscape:cy="303.3609"
     inkscape:cx="463.17111"
     inkscape:zoom="0.8156114"
     showgrid="false"
     id="namedview5278"
     inkscape:window-height="1016"
     inkscape:window-width="2560"
     inkscape:pageshadow="2"
     inkscape:pageopacity="0"
     guidetolerance="10"
     gridtolerance="10"
     objecttolerance="10"
     borderopacity="1"
     bordercolor="#666666"
     pagecolor="#ffffff" /><g
     transform="matrix(1.3333333,0,0,-1.3333333,45.036391,128.02586)"
     inkscape:label="SPARKWEST_HORIZ_WHITE"
     inkscape:groupmode="layer"
     id="g5284"><g
       id="g2315"><path
         inkscape:connector-curvature="0"
         id="path5336"
         style="fill:#ffffff;fill-opacity:1;fill-rule:nonzero;stroke:none"
         d="m 82.3703,73.8994 v 22.12 h 6.12 v -45.77 h -6.12 v 9.115 l -6.566,20.846 v -29.961 h -6.12 v 45.77 h 6.12 z" /><path
         inkscape:connector-curvature="0"
         id="path5300"
         style="fill:#ffffff;fill-opacity:1;fill-rule:nonzero;stroke:none"
         d="m 21.3667,83.7163 v 4.016 c 0,1.826 -0.892,2.741 -2.677,2.741 h -0.956 c -1.743,0 -2.614,-0.915 -2.614,-2.741 v -7.586 c 0,-0.85 0.169,-1.424 0.51,-1.721 0.34,-0.298 0.892,-0.68 1.657,-1.147 l 5.801,-3.124 c 1.275,-0.723 2.177,-1.286 2.71,-1.689 0.53,-0.405 0.944,-0.893 1.242,-1.466 0.297,-0.574 0.447,-1.669 0.447,-3.283 v -9.754 c 0,-5.142 -2.465,-7.713 -7.395,-7.713 h -3.761 c -4.887,0 -7.331,2.805 -7.331,8.414 v 2.296 h 6.12 v -2.486 c 0,-1.785 0.914,-2.678 2.741,-2.678 h 1.084 c 1.614,0 2.422,0.893 2.422,2.678 v 7.776 c 0,0.85 -0.17,1.424 -0.51,1.721 -0.341,0.297 -0.892,0.68 -1.657,1.148 l -5.801,3.251 c -1.275,0.68 -2.199,1.253 -2.773,1.721 -0.574,0.467 -0.988,1.073 -1.243,1.817 -0.255,0.743 -0.383,1.71 -0.383,2.9 v 9.371 c 0,5.227 2.444,7.841 7.331,7.841 h 3.825 c 4.886,0 7.331,-2.614 7.331,-7.841 v -4.462 z" /><path
         inkscape:connector-curvature="0"
         id="path5320"
         style="fill:#ffffff;fill-opacity:1;fill-rule:nonzero;stroke:none"
         d="m 66.8161,96.0191 -6.757,-45.77 h -6.63 l -3.761,26.519 -3.697,-26.519 h -6.63 l -6.756,45.77 h 6.055 l 4.335,-34.295 4.335,34.295 h 4.78 l 4.335,-34.295 4.335,34.295 z" /><path
         id="path1460"
         d="M -33.040824,74.913398 -12.67045,95.28273 c 0.982094,0.982093 2.575251,0.982093 3.5573502,0 l 2.376108,-2.376108 c 0.981047,-0.981048 0.982094,-2.570014 0.0041,-3.553159 L -22.877124,73.134724 -6.7338468,56.914936 c 0.978949,-0.983144 0.976851,-2.572107 -0.0041,-3.553155 l -2.376113,-2.376107 c -0.9820992,-0.982096 -2.5752562,-0.982096 -3.5573552,0 L -33.040722,71.35605 c -0.982096,0.982096 -0.982096,2.575251 0,3.557348 z"
         inkscape:connector-curvature="0"
         style="fill:#fcd23c;fill-opacity:1;stroke-width:0.104813" /></g></g></svg>
